<?xml version="1.0" encoding="UTF-8"?><svg id="Capa_2" xmlns="http://www.w3.org/2000/svg" viewBox="0 0 1133.86 175.38"><g id="Capa_1-2"><path d="M896.39,81.78h136.62s1.34-17.94,1.34-17.94l47.51,30.19-47.71,32.26-.56-18.13-83.41.17-.31,47.31c-28.46,20.49-65.47,25.25-98.15,13.23-33.6-12.36-51.63-43.56-49.48-78.8,2.37-38.88,31.21-68.37,69.8-73.79,29.47-4.14,59.83,2.51,80.46,24.73l-23.48,22.89c-13.21-13.42-31.86-20.06-51.06-16.79-23.93,4.08-38.91,23.75-39.03,47.72-.11,21.03,10.8,39.1,31.05,46.6,15.01,5.56,31.97,3.93,46.2-3.47l.27-29.98-33.48.26,13.42-26.46Z" style="fill:#f4950f;"/><polygon points="142.32 171.76 105.42 172.15 105.89 108.93 36.38 108.86 36.5 172.05 0 172.18 0 17.69 36.42 17.39 36.52 78.2 105.57 78.19 105.65 17.55 142.31 17.5 142.32 171.76" style="fill:#0b6fb1;"/><path d="M968.24,119.35l38.55-.51c9.67,19.19,26.81,26.59,46.54,25.79,18.22-.74,35.63-13.25,41.26-32.33,7.32-24.8-1.28-50.88-24.09-61.51-22.39-10.44-50.42-3.87-63.64,19.84l-38.54-.17c11.98-36.17,44.96-55.11,81.67-55.35,38.82-.25,73.6,23.07,81.8,61.2,5.61,26.09-.09,52.25-17.36,71.88-16.22,18.45-39.77,27.61-66.04,27.06-34.91-.74-68.73-17.89-80.14-55.88Z" style="fill:#f4950f;"/><path d="M784.65,84.88c10.55,21.05,7.98,44.69-3.8,62.93-11.9,18.42-33.73,27.36-56.84,27.02-35.55-.52-63.1-26.06-63.51-60.67-.4-33.96,25.92-60.6,61.38-62.03,25.38-1.02,50.62,8.51,62.77,32.75ZM756.14,111.73c-.69-20.23-14.81-32.02-33.18-30.78-16.32,1.1-27.93,15.48-27.49,33.64.45,18.24,14.23,32.72,31.79,31.72s29.55-14.67,28.87-34.58Z" style="fill:#0b6fb1;"/><path d="M266.3,64.6c23.72,16.7,28.96,47.13,19.37,72.28-9.65,25.33-35.89,39.34-64.38,37.89-27.81-1.42-51.8-18.07-58.93-43.21-7.62-26.88,1.19-55.43,26.11-69.75,23.49-13.5,54.58-13.59,77.83,2.79ZM255.34,112.96c-.16-19.87-13.78-33.25-32.76-32-17.2,1.13-28.61,15.3-27.93,34.34.65,18.15,14.82,31.94,32.39,31.01,16.93-.9,28.45-15.74,28.3-33.36Z" style="fill:#0b6fb1;"/><path d="M415.96,173.17c-18.09-3.31-29.59-16.22-30.69-32.64-1.12-16.77,9.41-31.17,27.53-35.74,15.51-3.92,31.81-3.71,49.59-3.17,2.78-8.95-4.42-18.7-14.66-20.46-16.25-2.8-31.47-.36-46.38,9.97l-11.58-24.7c24.44-14.86,54.81-19.48,81.67-9,15.27,5.96,26.05,21.23,26.18,37.49l.6,77.03-31.92.23-.97-11.77c-12.22,14.01-30.56,16.2-49.36,12.76ZM461.46,138.79c2.06-3.25,1.9-12.02,1.76-16.42l-32.72.64c-4.63.09-11.5,7.54-12.1,11.76-.68,4.72,3.4,12.53,8.81,14.46,11.61,4.13,26.76,1.37,34.25-10.44Z" style="fill:#0b6fb1;"/><path d="M556.58,172.05l-34.81-.05.02-118.01,32.8.03.26,14.62c11.54-11.8,23.6-16.74,40.73-16.87l-.98,33.11c-18.09-3.78-36.86,4.73-37.09,21.58l-.92,65.59Z" style="fill:#0b6fb1;"/><path d="M341.76,171.98l-34.93.12.02-118.11,32.02.12,1.05,14.89c11.59-12.3,25.04-17.91,40.27-16.55l-.31,31.45c-9.55-.47-19.2.06-26.82,5.05-5.29,3.47-11.14,13.56-11.16,21.57l-.14,61.45Z" style="fill:#0b6fb1;"/><rect x="566.77" y="95.62" width="118.56" height="34.6" transform="translate(513.03 738.96) rotate(-89.99)" style="fill:#0b6fb1;"/><path d="M644.68,30.3c-5.37,7.6-14.89,9.36-23.46,8.25-5.89-.76-14.38-6.95-16.43-14.64-3.42-12.82,7.15-23.51,19.88-23.89,7.06-.21,14.88,2.98,18.55,7.19,5.09,5.83,6.5,15.97,1.47,23.1Z" style="fill:#0b6fb1;"/></g></svg>