<?xml version="1.0" encoding="UTF-8"?><svg id="Capa_2" xmlns="http://www.w3.org/2000/svg" viewBox="0 0 399.69 352.36"><g id="Capa_1-2"><path d="M399.69,118.28l-29.77-23.89c-46.73,77.92-127.23,158.6-206.56,200.56-36.06,19.08-84.55,36.06-123.52,26.6-21.49-5.23-37.15-21.59-39.4-44.78-1.94-20.08,2.75-38.63,10.43-55.44-.42,13.78-1.74,26.9.86,39.8,3.26,16.08,14.37,29.16,30.49,31.96,19.04,3.31,37.71-.62,55.31-7.84,20.52-8.42,38.94-18.26,57.36-30.98,71.91-49.68,124.08-112.52,168.94-188.03l-34.98-13.33L393.84.05l.11-.05,5.73,118.28Z" style="fill:#f49614;"/><path d="M42.27,189.39l21.83,1.14c2.35.12,5.67,4.05,5.71,6.31.06,3.15-3.58,7.55-6.54,7.59l-21.2.25c2.32,25.13,9.97,47.42,23.19,66.84,31.98-3.52,57.69-16.84,86.93-30.91-25.87,22.53-71.79,46.3-108.58,43.07C-3,215.92,13.24,123.37,77.89,74.25c65.22-49.55,158.86-39.89,212.05,23.66l-14.97,22.12c-23.41-30.54-56.32-49.7-96.29-52.46l-.4,23.21c-.04,2.54-4.71,6.13-7.33,5.97-2.42-.15-6.63-4.14-6.69-6.76l-.51-22.47c-64.78,5.06-117.14,55.08-121.5,121.86Z" style="fill:#0b6fb1;"/><path d="M131.36,320.91l32.36,6.92,1.01-16.32c.22-3.59,3.23-6.36,6.83-6.28h0c3.58.08,6.46,2.96,6.55,6.54l.36,15.77c57.36-3.97,107.29-45.56,119.39-103.72-30.86,27.28-63.08,51.45-101.21,68.12,46.94-34.44,89.24-70.76,127.6-116.42,10.13,66.21-24.57,130.31-83.29,160.28-42.6,21.74-92.04,22.08-135.48,1.07-36.93,9.28-89.69,12.16-103.61-25.87,32.6,35.05,85.54,26.52,129.49,9.92Z" style="fill:#ec7e06;"/><path d="M105.49,147.26c-3.9-3.42.32-7.47,3.9-4.61,0,0,3.25,2.46,3.26,2.46,2.26,1.71,44.18,33.41,50.91,38.5.53.4,1.17.59,1.83.55,3.21-.19,6.42-.38,9.63-.58.66-.04,1.27-.3,1.75-.76,19.49-18.79,55.33-53.22,63.71-61.27,1.02-.98,2.61-1.03,3.69-.12h0c1.17.98,1.33,2.73.35,3.9-.46.55-.92,1.11-1.27,1.52l-57.38,64.22c-.58.65-.85,1.55-.65,2.41,2.17,9.3-3.04,16.58-11.64,17.86-7.91,1.17-16.16-4.72-16.46-14.09-.02-.77-.31-1.5-.87-2.03-15.97-15.09-31.95-30.18-47.92-45.27-.95-.9-1.9-1.8-2.85-2.69ZM177,196.71c0-3.18-2.58-5.75-5.75-5.75s-5.75,2.58-5.75,5.75,2.58,5.75,5.75,5.75,5.75-2.58,5.75-5.75Z" style="fill:#0b6fb1;"/><circle cx="171.24" cy="196.71" r="5.75" style="fill:#fff;"/><rect x="225.82" y="89.08" width="6.6" height="18.54" rx="3.3" ry="3.3" transform="translate(73.38 -96.36) rotate(28.11)" style="fill:#0b6fb1;"/><rect x="110.56" y="89.2" width="6.6" height="18.54" rx="3.3" ry="3.3" transform="translate(-32.88 64.86) rotate(-27.95)" style="fill:#0b6fb1;"/><rect x="69.36" y="130.76" width="6.6" height="18.54" rx="3.3" ry="3.3" transform="translate(-84.94 132.95) rotate(-60)" style="fill:#0b6fb1;"/><rect x="69.29" y="244.43" width="6.6" height="18.54" rx="3.3" ry="3.3" transform="translate(-110.83 443.42) rotate(-120)" style="fill:#0b6fb1;"/><rect x="224.59" y="287.09" width="6.6" height="18.54" rx="3.3" ry="3.3" transform="translate(-112.47 141.71) rotate(-28.01)" style="fill:#ec7e06;"/><ellipse cx="171.5" cy="197.06" rx="10.66" ry="10.67" style="fill:#fff; stroke:#0b6fb1; stroke-miterlimit:10; stroke-width:8px;"/><path d="M399.69,118.28l-29.77-23.89c-46.73,77.92-127.23,158.6-206.56,200.56-36.06,19.08-84.55,36.06-123.52,26.6-21.49-5.23-37.15-21.59-39.4-44.78-1.94-20.08,2.75-38.63,10.43-55.44,1.05-2.29-16.03,38.57,1.38,63.78,11.82,17.13,34.82,20.56,42.49,21.71,21.66,3.24,39.71-3.03,56.13-10.16,47.06-20.43,79.48-47.37,112.94-75.57,34.03-28.69,55.5-51.47,68.19-65.52,8.65-9.58,17.5-20.04,26.62-31.72C353.34,79.38,377.3,36.18,393.84.05L393.96,0l5.73,118.28Z" style="fill:#ec7e06;"/></g></svg>